<svg xmlns="http://www.w3.org/2000/svg" width="512" height="512" viewBox="0 0 512 512" fill="none" role="img" aria-labelledby="title">
<title id="title">Ícone SistemaSOS</title>
<defs>
  <linearGradient id="g" x1="0" y1="0" x2="1" y2="1">
    <stop offset="0%" stop-color="#19E45F"/>
    <stop offset="100%" stop-color="#00C853"/>
  </linearGradient>
</defs>
<rect width="512" height="512" rx="104" fill="#F7F8FA"/>
<g transform="translate(76,66) scale(2.42)">
  <path d="M74 0C33.1 0 0 31.7 0 70.8c0 21.8 10.4 41.3 26.8 54.3v45.9l34.6-27.5c4.1.6 8.3.9 12.6.9 40.9 0 74-31.7 74-70.8S114.9 0 74 0Z" fill="#1B1F2A"/>
  <rect x="68" y="0" width="12" height="26" rx="6" fill="#fff"/>
  <rect x="68" y="128" width="12" height="29" rx="6" fill="#fff"/>
  <circle cx="74" cy="73" r="33" fill="none" stroke="#fff" stroke-width="14"/>
  <path d="M24 57h34c5 0 8-3.5 8-8s-3-8-8-8H35c-11 0-20 9-20 20v10c0 11 9 20 20 20h22c5 0 8 3.5 8 8s-3 8-8 8H24" stroke="#fff" stroke-width="14" stroke-linecap="round" stroke-linejoin="round"/>
  <path d="M124 57H90c-5 0-8-3.5-8-8s3-8 8-8h23c11 0 20 9 20 20v10c0 11-9 20-20 20H91c-5 0-8 3.5-8 8s3 8 8 8h33" stroke="#fff" stroke-width="14" stroke-linecap="round" stroke-linejoin="round"/>
  <circle cx="74" cy="73" r="28" fill="url(#g)" stroke="#16202F" stroke-width="5"/>
  <path d="M57 62c7-13 24-17 39-7" stroke="#8DFFA7" stroke-width="6" stroke-linecap="round" opacity=".75"/>
</g>
</svg>